<svg width="21" height="28" viewBox="0 0 21 28" fill="none" xmlns="http://www.w3.org/2000/svg">
<path fill-rule="evenodd" clip-rule="evenodd" d="M12.7273 2.54545V2.91439C16.4073 4.00964 19.0909 7.4187 19.0909 11.4545V20.3636H20.3636V22.9091H0V20.3636H1.27273V11.4545C1.27273 7.4187 3.95629 4.00964 7.63636 2.91439V2.54545C7.63636 1.13964 8.776 0 10.1818 0C11.5876 0 12.7273 1.13964 12.7273 2.54545ZM3.81818 20.3636H16.5455V11.4545C16.5455 7.94001 13.6964 5.09091 10.1818 5.09091C6.66728 5.09091 3.81818 7.94001 3.81818 11.4545V20.3636ZM12.7273 25.4545V24.1818H7.63636V25.4545C7.63636 26.8604 8.776 28 10.1818 28C11.5876 28 12.7273 26.8604 12.7273 25.4545Z" fill="#F2F2F2"/>
</svg>
