<svg width="25" height="19" viewBox="0 0 25 19" fill="none" xmlns="http://www.w3.org/2000/svg">
<path d="M20.9233 1.54436C20.9166 1.53143 20.9056 1.5213 20.8921 1.51578C19.336 0.801849 17.694 0.292757 16.0069 0.00124873C15.9916 -0.00160071 15.9758 0.000454907 15.9617 0.00712322C15.9476 0.0137915 15.936 0.024733 15.9284 0.0383917C15.7048 0.444225 15.5019 0.861084 15.3203 1.28738C13.5018 1.01133 11.652 1.01133 9.83349 1.28738C9.6507 0.860001 9.44447 0.443039 9.21573 0.0383917C9.20789 0.0250299 9.1962 0.0143404 9.18219 0.00771536C9.16818 0.00109036 9.15251 -0.00116305 9.1372 0.00124873C7.45 0.292145 5.80781 0.801275 4.25196 1.51583C4.23864 1.52147 4.2274 1.53111 4.21979 1.54342C1.1084 6.18988 0.256067 10.7221 0.674191 15.1982C0.675367 15.2092 0.678737 15.2198 0.684101 15.2294C0.689465 15.2391 0.696714 15.2475 0.705415 15.2543C2.51715 16.5958 4.54361 17.6197 6.69829 18.2825C6.71347 18.287 6.72967 18.2868 6.74472 18.2819C6.75978 18.2769 6.77296 18.2675 6.7825 18.2549C7.24528 17.6252 7.65534 16.9584 8.0085 16.2613C8.01335 16.2517 8.01613 16.2413 8.01663 16.2305C8.01714 16.2198 8.01537 16.2091 8.01144 16.1991C8.00751 16.1892 8.00151 16.1801 7.99383 16.1726C7.98616 16.1651 7.97698 16.1594 7.96691 16.1557C7.32028 15.9083 6.69426 15.61 6.09474 15.2637C6.08385 15.2573 6.0747 15.2483 6.06811 15.2375C6.06151 15.2268 6.05767 15.2145 6.05693 15.2019C6.05618 15.1893 6.05855 15.1767 6.06383 15.1652C6.06911 15.1538 6.07713 15.1438 6.08719 15.1361C6.21299 15.0419 6.33886 14.9438 6.45899 14.8448C6.46966 14.836 6.48257 14.8304 6.49627 14.8285C6.50998 14.8267 6.52392 14.8287 6.53654 14.8344C10.4643 16.6269 14.7166 16.6269 18.5978 14.8344C18.6105 14.8284 18.6245 14.8261 18.6384 14.8277C18.6524 14.8294 18.6655 14.835 18.6763 14.8439C18.7965 14.9429 18.9223 15.0419 19.0491 15.1361C19.0592 15.1437 19.0673 15.1536 19.0726 15.1651C19.078 15.1765 19.0805 15.1891 19.0798 15.2017C19.0792 15.2143 19.0754 15.2265 19.0689 15.2374C19.0624 15.2482 19.0533 15.2572 19.0425 15.2637C18.4443 15.6129 17.8177 15.911 17.1694 16.1547C17.1593 16.1586 17.1502 16.1645 17.1426 16.1721C17.1349 16.1797 17.129 16.1888 17.1251 16.1989C17.1213 16.2089 17.1196 16.2197 17.1202 16.2305C17.1208 16.2412 17.1236 16.2517 17.1286 16.2613C17.4877 16.9545 17.8971 17.6205 18.3536 18.2538C18.3629 18.2668 18.376 18.2765 18.3911 18.2816C18.4062 18.2868 18.4226 18.287 18.4378 18.2823C20.5964 17.6218 22.6264 16.5978 24.4404 15.2543C24.4492 15.2479 24.4566 15.2396 24.462 15.2301C24.4674 15.2206 24.4706 15.21 24.4716 15.1991C24.9722 10.0243 23.6336 5.52923 20.9233 1.54436ZM8.59508 12.4727C7.41254 12.4727 6.43817 11.3875 6.43817 10.0548C6.43817 8.72205 7.39364 7.63679 8.59508 7.63679C9.8059 7.63679 10.7708 8.73148 10.7519 10.0547C10.7519 11.3875 9.79643 12.4727 8.59508 12.4727ZM16.5698 12.4727C15.3873 12.4727 14.4129 11.3875 14.4129 10.0548C14.4129 8.72205 15.3684 7.63679 16.5698 7.63679C17.7807 7.63679 18.7456 8.73148 18.7267 10.0547C18.7267 11.3875 17.7807 12.4727 16.5698 12.4727Z" fill="#F2F2F2"/>
</svg>
