<svg width="28" height="28" viewBox="0 0 28 28" fill="none" xmlns="http://www.w3.org/2000/svg">
<path fill-rule="evenodd" clip-rule="evenodd" d="M19.0909 10.1818C19.0909 12.9934 16.8116 15.2727 14 15.2727C11.1884 15.2727 8.90909 12.9934 8.90909 10.1818C8.90909 7.37019 11.1884 5.09091 14 5.09091C16.8116 5.09091 19.0909 7.37019 19.0909 10.1818ZM16.5455 10.1818C16.5455 11.5876 15.4058 12.7273 14 12.7273C12.5942 12.7273 11.4545 11.5876 11.4545 10.1818C11.4545 8.776 12.5942 7.63636 14 7.63636C15.4058 7.63636 16.5455 8.776 16.5455 10.1818Z" fill="#F2F2F2"/>
<path fill-rule="evenodd" clip-rule="evenodd" d="M14 0C6.26801 0 0 6.26801 0 14C0 21.732 6.26801 28 14 28C21.732 28 28 21.732 28 14C28 6.26801 21.732 0 14 0ZM2.54545 14C2.54545 16.6603 3.45233 19.1087 4.9738 21.0531C7.06675 18.3131 10.368 16.5455 14.0821 16.5455C17.748 16.5455 21.0117 18.2676 23.1083 20.9469C24.5802 19.02 25.4545 16.6121 25.4545 14C25.4545 7.67383 20.3262 2.54545 14 2.54545C7.67383 2.54545 2.54545 7.67383 2.54545 14ZM14 25.4545C11.2633 25.4545 8.75083 24.4948 6.78067 22.8936C8.39175 20.5943 11.0613 19.0909 14.0821 19.0909C17.0653 19.0909 19.7061 20.5572 21.323 22.8084C19.3377 24.4607 16.7849 25.4545 14 25.4545Z" fill="#F2F2F2"/>
</svg>
