<svg width="25" height="20" viewBox="0 0 25 20" fill="none" xmlns="http://www.w3.org/2000/svg">
<path d="M22.1081 4.85786C22.1233 5.07105 22.1233 5.28429 22.1233 5.49747C22.1233 12 17.1741 19.4924 8.12834 19.4924C5.34152 19.4924 2.75269 18.6853 0.575012 17.2843C0.970967 17.33 1.35164 17.3452 1.76283 17.3452C4.06229 17.3452 6.17908 16.5686 7.86945 15.2437C5.707 15.198 3.89481 13.7818 3.27043 11.8325C3.57502 11.8782 3.87957 11.9086 4.1994 11.9086C4.64101 11.9086 5.08267 11.8477 5.49381 11.7412C3.24001 11.2843 1.54959 9.30458 1.54959 6.91371V6.85282C2.20439 7.21831 2.96588 7.44673 3.77293 7.47715C2.44805 6.59388 1.58006 5.08629 1.58006 3.38069C1.58006 2.46699 1.82367 1.62943 2.2501 0.898457C4.67143 3.88323 8.31106 5.83244 12.3922 6.04568C12.3161 5.68019 12.2704 5.29952 12.2704 4.9188C12.2704 2.2081 14.4633 0 17.1892 0C18.6055 0 19.8846 0.593909 20.7831 1.5533C21.8948 1.34011 22.9608 0.928926 23.905 0.365486C23.5394 1.50765 22.7628 2.46704 21.7425 3.07614C22.7324 2.96959 23.6918 2.69542 24.575 2.31474C23.9051 3.28933 23.0675 4.15731 22.1081 4.85786Z" fill="#F2F2F2"/>
</svg>
