<svg width="40" height="41" viewBox="0 0 40 41" fill="none" xmlns="http://www.w3.org/2000/svg">
<rect x="21.3871" y="20.071" width="13.1613" height="13.1613" rx="2" transform="rotate(-45 21.3871 20.071)" fill="#03C9A9"/>
<rect x="10.529" y="30.9291" width="13.1613" height="13.1613" rx="2" transform="rotate(-45 10.529 30.9291)" fill="#03C9A9"/>
<path d="M1.41422 21.4852C0.633167 20.7042 0.633165 19.4378 1.41421 18.6568L7.89223 12.1788C8.67328 11.3977 9.93961 11.3977 10.7207 12.1788L17.1987 18.6568C17.9797 19.4378 17.9797 20.7042 17.1987 21.4852L10.7207 27.9632C9.93961 28.7443 8.67328 28.7443 7.89223 27.9632L1.41422 21.4852Z" fill="#03C9A9"/>
<rect x="10.529" y="9.30644" width="13.1613" height="13.1613" rx="2" transform="rotate(-45 10.529 9.30644)" fill="#03C9A9"/>
</svg>
