<svg width="25" height="17" viewBox="0 0 25 17" fill="none" xmlns="http://www.w3.org/2000/svg">
<path d="M24.3526 2.64036C24.0765 1.60106 23.2633 0.782533 22.2307 0.504755C20.3591 0 12.8541 0 12.8541 0C12.8541 0 5.34909 0 3.47742 0.504755C2.44484 0.782577 1.63159 1.60106 1.35557 2.64036C0.854065 4.52416 0.854065 8.45454 0.854065 8.45454C0.854065 8.45454 0.854065 12.3849 1.35557 14.2687C1.63159 15.308 2.44484 16.0924 3.47742 16.3702C5.34909 16.875 12.8541 16.875 12.8541 16.875C12.8541 16.875 20.359 16.875 22.2307 16.3702C23.2633 16.0924 24.0765 15.308 24.3526 14.2687C24.8541 12.3849 24.8541 8.45454 24.8541 8.45454C24.8541 8.45454 24.8541 4.52416 24.3526 2.64036ZM10.3995 12.023V4.88605L16.6722 8.45463L10.3995 12.023Z" fill="#F2F2F2"/>
</svg>
